# xmcd CD database file
#
# Track frame offsets:
#	150
#	25330
#	48277
#	68427
#	90390
#	114380
#	139615
#	166410
#	186182
#	216682
#
# Disc length: 3079 seconds
#
# Revision: 0
# Processed by: cddbd v1.4PL0 Copyright (c) Steve Scherf et al.
# Submitted via: CDex 1.50Beta7
#
DISCID=850c050a
DTITLE=Jeff Richman - Last Arrival
DYEAR=1996
DGENRE=Jazz
TTITLE0=Three For All
TTITLE1=Galileo
TTITLE2=Sitting Ducks
TTITLE3=When She Smiles
TTITLE4=Last Arrival
TTITLE5=Walking On The Moon
TTITLE6=Suite Thirteen
TTITLE7=When The Saints Go Marching In
TTITLE8=The Cave
TTITLE9=Pegasus 51
EXTD=YEAR: 1996
EXTT0=
EXTT1=
EXTT2=
EXTT3=
EXTT4=
EXTT5=
EXTT6=
EXTT7=
EXTT8=
EXTT9=
PLAYORDER=
